<svg id="Layer_2" height="512" viewBox="0 0 128 128" width="512" xmlns="http://www.w3.org/2000/svg" data-name="Layer 2"><path d="m1.75 1.75h124.5v12.25h-124.5z" fill="#5b6ea2"/><path d="m87.492 33h-46.984l-10.008-19h67z" fill="#86dbd5"/><path d="m49.167 23.5h29.667v9.5h-29.667z" fill="#eef0f1"/><path d="m58.087 33h11.826v25.898h-11.826z" fill="#f7d56b"/><path d="m75.292 68.9h-22.584a4 4 0 0 1 -4-4v-6h30.584v6a4 4 0 0 1 -4 4z" fill="#ec7887"/><g fill="#5b6ea2"><path d="m70.219 120.031a6.219 6.219 0 1 1 -12.438 0c0-3.434 6.219-10.323 6.219-10.323s6.219 6.892 6.219 10.323z"/><path d="m12.366 124.429a6.219 6.219 0 0 1 -8.795-8.8c2.429-2.428 11.7-2.9 11.7-2.9s-.477 9.271-2.905 11.7z"/><path d="m115.634 124.429a6.219 6.219 0 0 0 8.8-8.8c-2.429-2.428-11.7-2.9-11.7-2.9s.472 9.271 2.9 11.7z"/><path d="m77.287 78.959a1.742 1.742 0 0 1 -1.238-.514l-1.06-1.061a1.75 1.75 0 0 1 2.477-2.473l1.059 1.062a1.75 1.75 0 0 1 -1.238 2.986z"/><path d="m97.087 98.8a1.74 1.74 0 0 1 -1.238-.514l-2.285-2.289a1.75 1.75 0 0 1 2.477-2.472l2.284 2.289a1.75 1.75 0 0 1 -1.238 2.986zm-9.9-9.918a1.743 1.743 0 0 1 -1.239-.514l-2.284-2.289a1.75 1.75 0 0 1 2.477-2.479l2.284 2.289a1.75 1.75 0 0 1 -1.238 2.986z"/><path d="m105.763 107.487a1.746 1.746 0 0 1 -1.239-.513l-1.059-1.062a1.75 1.75 0 0 1 2.476-2.473l1.059 1.061a1.749 1.749 0 0 1 -1.238 2.986z"/><path d="m64.013 74.4a1.749 1.749 0 0 1 1.749 1.749v1.5a1.75 1.75 0 0 1 -1.75 1.75 1.749 1.749 0 0 1 -1.749-1.749v-1.5a1.75 1.75 0 0 1 1.75-1.75z"/><path d="m64 84.993a1.748 1.748 0 0 1 1.748 1.748v3.413a1.75 1.75 0 0 1 -1.748 1.746 1.748 1.748 0 0 1 -1.748-1.748v-3.409a1.75 1.75 0 0 1 1.748-1.75z"/><path d="m63.992 97.5a1.749 1.749 0 0 1 1.749 1.749v1.5a1.75 1.75 0 0 1 -1.75 1.75 1.749 1.749 0 0 1 -1.749-1.749v-1.5a1.75 1.75 0 0 1 1.75-1.75z"/><path d="m50.713 78.959a1.75 1.75 0 0 1 -1.238-2.986l1.059-1.062a1.75 1.75 0 1 1 2.477 2.473l-1.06 1.061a1.742 1.742 0 0 1 -1.238.514z"/><path d="m30.913 98.8a1.75 1.75 0 0 1 -1.238-2.986l2.284-2.289a1.75 1.75 0 0 1 2.477 2.472l-2.285 2.289a1.74 1.74 0 0 1 -1.238.514zm9.9-9.918a1.75 1.75 0 0 1 -1.238-2.986l2.284-2.296a1.75 1.75 0 0 1 2.477 2.472l-2.284 2.289a1.743 1.743 0 0 1 -1.239.517z"/><path d="m22.237 107.487a1.749 1.749 0 0 1 -1.237-2.987l1.06-1.062a1.75 1.75 0 0 1 2.476 2.473l-1.059 1.062a1.746 1.746 0 0 1 -1.24.514z"/></g><path d="m126.25 0h-74.478a1.75 1.75 0 0 0 0 3.5h72.728v8.75h-121v-8.75h7.5a1.75 1.75 0 0 0 0-3.5h-9.25a1.749 1.749 0 0 0 -1.75 1.75v12.25a1.749 1.749 0 0 0 1.75 1.75h27.693l9.516 18.065a1.749 1.749 0 0 0 1.549.935h15.829v22.4h-7.629a1.75 1.75 0 0 0 -1.75 1.75v6a5.756 5.756 0 0 0 5.75 5.75h22.584a1.75 1.75 0 0 0 0-3.5h-22.584a2.253 2.253 0 0 1 -2.25-2.25v-4.25h27.084v.85a1.75 1.75 0 0 0 3.5 0v-2.6a1.75 1.75 0 0 0 -1.75-1.75h-7.629v-22.4h15.829a1.749 1.749 0 0 0 1.549-.935l9.516-18.065h27.693a1.749 1.749 0 0 0 1.75-1.75v-12.25a1.749 1.749 0 0 0 -1.75-1.75zm-58.087 57.147h-8.326v-22.397h8.326zm1.75-25.9h-19v-6h26.17v6zm16.524 0h-5.854v-7.747a1.749 1.749 0 0 0 -1.75-1.75h-29.666a1.749 1.749 0 0 0 -1.75 1.75v7.75h-5.854l-8.163-15.5h61.2z"/><path d="m25.768 3.5h11.237a1.75 1.75 0 0 0 0-3.5h-11.237a1.75 1.75 0 0 0 0 3.5z"/><path d="m62.7 108.535c-1.114 1.235-6.67 7.587-6.67 11.5a7.969 7.969 0 1 0 15.938 0c0-3.909-5.556-10.261-6.67-11.5a1.808 1.808 0 0 0 -2.598 0zm1.3 15.965a4.474 4.474 0 0 1 -4.469-4.469c0-1.574 2.314-5 4.469-7.634 2.155 2.639 4.469 6.06 4.469 7.634a4.474 4.474 0 0 1 -4.469 4.469z"/><path d="m15.18 110.983c-1.66.085-10.081.649-12.846 3.413a7.969 7.969 0 0 0 11.27 11.27c2.764-2.765 3.328-11.186 3.413-12.846a1.751 1.751 0 0 0 -.511-1.326 1.791 1.791 0 0 0 -1.326-.511zm-4.051 12.208a4.469 4.469 0 1 1 -6.32-6.32c1.113-1.113 5.169-1.9 8.557-2.237-.341 3.388-1.124 7.444-2.237 8.557z"/><path d="m112.82 110.983a1.772 1.772 0 0 0 -1.326.511 1.751 1.751 0 0 0 -.511 1.326c.085 1.66.649 10.081 3.413 12.846a7.969 7.969 0 1 0 11.27-11.27c-2.766-2.764-11.186-3.328-12.846-3.413zm10.371 12.208a4.473 4.473 0 0 1 -6.32 0c-1.113-1.113-1.9-5.169-2.237-8.557 3.388.341 7.444 1.124 8.557 2.237a4.473 4.473 0 0 1 0 6.32z"/><path d="m77.466 74.911a1.75 1.75 0 0 0 -2.477 2.473l1.06 1.061a1.749 1.749 0 0 0 2.476-2.472z"/><path d="m86.141 83.6a1.75 1.75 0 0 0 -2.477 2.472l2.284 2.289a1.75 1.75 0 0 0 2.477-2.472z"/><path d="m96.041 93.521a1.75 1.75 0 0 0 -2.477 2.472l2.285 2.289a1.749 1.749 0 0 0 2.476-2.472z"/><path d="m105.941 103.439a1.75 1.75 0 0 0 -2.476 2.473l1.059 1.062a1.75 1.75 0 0 0 2.476-2.474z"/><path d="m64.012 74.4a1.75 1.75 0 0 1 1.75 1.75v1.5a1.749 1.749 0 0 1 -1.748 1.75 1.75 1.75 0 0 1 -1.75-1.75v-1.5a1.749 1.749 0 0 1 1.748-1.75z"/><path d="m64 84.993a1.75 1.75 0 0 1 1.75 1.75v3.413a1.748 1.748 0 0 1 -1.75 1.744 1.75 1.75 0 0 1 -1.75-1.75v-3.409a1.748 1.748 0 0 1 1.75-1.748z"/><path d="m63.991 97.5a1.75 1.75 0 0 1 1.75 1.75v1.5a1.749 1.749 0 0 1 -1.749 1.749 1.75 1.75 0 0 1 -1.75-1.75v-1.5a1.749 1.749 0 0 1 1.749-1.749z"/><path d="m50.534 74.911-1.059 1.062a1.749 1.749 0 1 0 2.476 2.472l1.06-1.061a1.75 1.75 0 1 0 -2.477-2.473z"/><path d="m41.859 83.6-2.284 2.289a1.75 1.75 0 1 0 2.477 2.472l2.284-2.289a1.75 1.75 0 0 0 -2.477-2.472z"/><path d="m31.959 93.521-2.284 2.289a1.749 1.749 0 1 0 2.476 2.472l2.285-2.289a1.75 1.75 0 0 0 -2.477-2.472z"/><path d="m22.059 103.439-1.059 1.061a1.75 1.75 0 0 0 2.477 2.473l1.059-1.062a1.75 1.75 0 0 0 -2.476-2.473z"/></svg>