<svg id="Layer_2" height="512" viewBox="0 0 128 128" width="512" xmlns="http://www.w3.org/2000/svg" data-name="Layer 2">
  <path d="m1.75 1.75h124.5v12.25h-124.5z" fill="#5b6ea2"/>
  <path d="m87.492 33h-46.984l-10.008-19h67z" fill="#86dbd5"/>
  <path d="m49.167 23.5h29.667v9.5h-29.667z" fill="#eef0f1"/>
  <path d="m58.087 33h11.826v25.898h-11.826z" fill="#f7d56b"/>
  <path d="m75.292 68.9h-22.584a4 4 0 0 1 -4-4v-6h30.584v6a4 4 0 0 1 -4 4z" fill="#ec7887"/>

  <path d="m126.25 0h-74.478a1.75 1.75 0 0 0 0 3.5h72.728v8.75h-121v-8.75h7.5a1.75 1.75 0 0 0 0-3.5h-9.25a1.749 1.749 0 0 0 -1.75 1.75v12.25a1.749 1.749 0 0 0 1.75 1.75h27.693l9.516 18.065a1.749 1.749 0 0 0 1.549.935h15.829v22.4h-7.629a1.75 1.75 0 0 0 -1.75 1.75v6a5.756 5.756 0 0 0 5.75 5.75h22.584a1.75 1.75 0 0 0 0-3.5h-22.584a2.253 2.253 0 0 1 -2.25-2.25v-4.25h27.084v.85a1.75 1.75 0 0 0 3.5 0v-2.6a1.75 1.75 0 0 0 -1.75-1.75h-7.629v-22.4h15.829a1.749 1.749 0 0 0 1.549-.935l9.516-18.065h27.693a1.749 1.749 0 0 0 1.75-1.75v-12.25a1.749 1.749 0 0 0 -1.75-1.75zm-58.087 57.147h-8.326v-22.397h8.326zm1.75-25.9h-19v-6h26.17v6zm16.524 0h-5.854v-7.747a1.749 1.749 0 0 0 -1.75-1.75h-29.666a1.749 1.749 0 0 0 -1.75 1.75v7.75h-5.854l-8.163-15.5h61.2z"/>
  <path d="m25.768 3.5h11.237a1.75 1.75 0 0 0 0-3.5h-11.237a1.75 1.75 0 0 0 0 3.5z"/>
</svg>
